# xmcd
#
# Track frame offsets: 
#        150
#        23877
#        41100
#        57875
#        69115
#        84557
#        115845
#        131270
#        170672
#        189527
#        206220
#        223097
#
# Disc length: 3204 seconds
#
# Revision: 2
# Processed by: cddbd v1.5.2PL0 Copyright (c) Steve Scherf et al.
# Submitted via: ExactAudioCopy v0.99pb4
#
DISCID=ac0c820c
DTITLE=James Solberg Band - See That My Grave Is Kept Clean
DYEAR=1995
DGENRE=Blues
TTITLE0=See That My Grave Is Kept Clean
TTITLE1=Cry For Me Baby
TTITLE2=Let's Straighten It Out
TTITLE3=Somebody Give Me A Guitar
TTITLE4=Everthing's Gonna Be Alright
TTITLE5=Bad Love
TTITLE6=Baby, when ya comin' back
TTITLE7=St. James Infirmary Blues
TTITLE8=Man Of Many Words
TTITLE9=Ain't Nobody's Business
TTITLE10=Snatch It Back and Hold It
TTITLE11=Jimmy's Blues
EXTD=
EXTT0=
EXTT1=
EXTT2=
EXTT3=
EXTT4=
EXTT5=
EXTT6=
EXTT7=
EXTT8=
EXTT9=
EXTT10=
EXTT11=
PLAYORDER=
